<?xml version="1.0" encoding="UTF-8" standalone="no"?>
<!-- Created with Inkscape (http://www.inkscape.org/) -->

<svg
   xmlns:dc="http://purl.org/dc/elements/1.1/"
   xmlns:cc="http://creativecommons.org/ns#"
   xmlns:rdf="http://www.w3.org/1999/02/22-rdf-syntax-ns#"
   xmlns:svg="http://www.w3.org/2000/svg"
   xmlns="http://www.w3.org/2000/svg"
   xmlns:sodipodi="http://sodipodi.sourceforge.net/DTD/sodipodi-0.dtd"
   xmlns:inkscape="http://www.inkscape.org/namespaces/inkscape"
   width="209.78093mm"
   height="72.299355mm"
   viewBox="0 0 209.78093 72.299354"
   version="1.1"
   id="svg8"
   inkscape:version="0.92.4 (5da689c313, 2019-01-14)"
   sodipodi:docname="pine.svg"
   inkscape:export-filename="/home/witiko/documents/programming/Python/pine/images/pine.png"
   inkscape:export-xdpi="300"
   inkscape:export-ydpi="300">
  <defs
     id="defs2">
    <marker
       inkscape:stockid="Arrow1Lend"
       orient="auto"
       refY="0"
       refX="0"
       id="Arrow1Lend"
       style="overflow:visible"
       inkscape:isstock="true">
      <path
         id="path5190"
         d="M 0,0 5,-5 -12.5,0 5,5 Z"
         style="fill:#000000;fill-opacity:1;fill-rule:evenodd;stroke:#000000;stroke-width:1.00000003pt;stroke-opacity:1"
         transform="matrix(-0.8,0,0,-0.8,-10,0)"
         inkscape:connector-curvature="0" />
    </marker>
    <marker
       inkscape:stockid="Arrow1Lstart"
       orient="auto"
       refY="0"
       refX="0"
       id="marker5491"
       style="overflow:visible"
       inkscape:isstock="true">
      <path
         id="path5489"
         d="M 0,0 5,-5 -12.5,0 5,5 Z"
         style="fill:#000000;fill-opacity:1;fill-rule:evenodd;stroke:#000000;stroke-width:1.00000003pt;stroke-opacity:1"
         transform="matrix(0.8,0,0,0.8,10,0)"
         inkscape:connector-curvature="0" />
    </marker>
    <marker
       inkscape:stockid="Arrow1Lstart"
       orient="auto"
       refY="0"
       refX="0"
       id="Arrow1Lstart"
       style="overflow:visible"
       inkscape:isstock="true">
      <path
         id="path5187"
         d="M 0,0 5,-5 -12.5,0 5,5 Z"
         style="fill:#000000;fill-opacity:1;fill-rule:evenodd;stroke:#000000;stroke-width:1.00000003pt;stroke-opacity:1"
         transform="matrix(0.8,0,0,0.8,10,0)"
         inkscape:connector-curvature="0" />
    </marker>
  </defs>
  <sodipodi:namedview
     id="base"
     pagecolor="#ffffff"
     bordercolor="#666666"
     borderopacity="1.0"
     inkscape:pageopacity="0.0"
     inkscape:pageshadow="2"
     inkscape:zoom="0.7"
     inkscape:cx="79.689554"
     inkscape:cy="308.43844"
     inkscape:document-units="mm"
     inkscape:current-layer="layer1"
     showgrid="false"
     units="mm"
     showguides="true"
     inkscape:guide-bbox="true"
     inkscape:window-width="1920"
     inkscape:window-height="1129"
     inkscape:window-x="0"
     inkscape:window-y="0"
     inkscape:window-maximized="1"
     fit-margin-top="5"
     fit-margin-left="5"
     fit-margin-right="5"
     fit-margin-bottom="5">
    <sodipodi:guide
       position="144.00893,24.190475"
       orientation="0,1"
       id="guide8222"
       inkscape:locked="false" />
  </sodipodi:namedview>
  <metadata
     id="metadata5">
    <rdf:RDF>
      <cc:Work
         rdf:about="">
        <dc:format>image/svg+xml</dc:format>
        <dc:type
           rdf:resource="http://purl.org/dc/dcmitype/StillImage" />
        <dc:title></dc:title>
      </cc:Work>
    </rdf:RDF>
  </metadata>
  <g
     inkscape:label="Vrstva 1"
     inkscape:groupmode="layer"
     id="layer1"
     transform="translate(-41.910497,-149.90458)">
    <g
       transform="matrix(0.06187424,0,0,0.06187424,55.453267,191.7764)"
       id="g6">
      <path
         inkscape:connector-curvature="0"
         d="M 148.5,0 C 87.43,0 37.747,49.703 37.747,110.797 c 0,91.026 99.729,179.905 103.976,183.645 1.936,1.705 4.356,2.559 6.777,2.559 2.421,0 4.841,-0.853 6.778,-2.559 4.245,-3.739 103.975,-92.618 103.975,-183.645 C 259.253,49.703 209.57,0 148.5,0 Z m 0,272.689 C 126.451,251.323 58.257,179.66 58.257,110.797 58.257,61.013 98.74,20.51 148.5,20.51 c 49.76,0 90.243,40.503 90.243,90.287 0,68.862 -68.194,140.525 -90.243,161.892 z"
         id="path2" />
      <path
         inkscape:connector-curvature="0"
         d="m 148.5,59.183 c -28.273,0 -51.274,23.154 -51.274,51.614 0,28.461 23.001,51.614 51.274,51.614 28.273,0 51.274,-23.153 51.274,-51.614 0,-28.46 -23.001,-51.614 -51.274,-51.614 z m 0,82.718 c -16.964,0 -30.765,-13.953 -30.765,-31.104 0,-17.15 13.801,-31.104 30.765,-31.104 16.964,0 30.765,13.953 30.765,31.104 0,17.151 -13.801,31.104 -30.765,31.104 z"
         id="path4" />
    </g>
    <g
       id="g5083"
       transform="matrix(0.06187424,0,0,0.06187424,221.16575,168.79122)">
      <path
         id="path5079"
         d="m 105.73853,68.418349 c -61.069998,0 -110.752998,49.703001 -110.752998,110.797001 0,91.026 99.729,179.905 103.976,183.645 1.935998,1.705 4.355998,2.559 6.776998,2.559 2.421,0 4.841,-0.853 6.778,-2.559 4.245,-3.739 103.975,-92.618 103.975,-183.645 0,-61.094 -49.683,-110.797001 -110.753,-110.797001 z m 0,272.689001 c -22.048998,-21.366 -90.242998,-93.029 -90.242998,-161.892 0,-49.784 40.483,-90.287001 90.242998,-90.287001 49.76,0 90.243,40.503001 90.243,90.287001 0,68.862 -68.194,140.525 -90.243,161.892 z"
         inkscape:connector-curvature="0"
         sodipodi:nodetypes="sscscsscsssc" />
      <path
         id="path5081"
         d="m 105.73853,127.60135 c -28.272998,0 -51.273998,23.154 -51.273998,51.614 0,28.461 23.001,51.614 51.273998,51.614 28.273,0 51.274,-23.153 51.274,-51.614 0,-28.46 -23.001,-51.614 -51.274,-51.614 z m 0,82.718 c -16.963998,0 -30.764998,-13.953 -30.764998,-31.104 0,-17.15 13.801,-31.104 30.764998,-31.104 16.964,0 30.765,13.953 30.765,31.104 0,17.151 -13.801,31.104 -30.765,31.104 z"
         inkscape:connector-curvature="0"
         sodipodi:nodetypes="ssssssssss" />
    </g>
    <rect
       style="fill:#ffffff;fill-opacity:1;fill-rule:evenodd;stroke-width:0.38175353;stroke-linejoin:round;stroke-dasharray:0.38175351, 0.38175351"
       id="rect5111"
       width="15.871635"
       height="7.3597612"
       x="245.35179"
       y="133.43663"
       transform="rotate(8.599647)" />
    <g
       id="Queen_1_"
       transform="matrix(0.48024758,0.07262759,-0.07262759,0.48024758,219.11566,148.47846)"
       style="fill:#000000;fill-opacity:1">
      <path
         inkscape:connector-curvature="0"
         id="Queen"
         d="m 55.966138,13.432347 c -2.233,0 -4.049,1.816 -4.049,4.048 0,1.183 0.519,2.239 1.331,2.979 l -16.64,13.658 -7.597,-16.742 c 1.724,-0.464 3.004,-2.026 3.004,-3.895 0,-2.232 -1.817,-4.0480001 -4.049,-4.0480001 -2.232,0 -4.049,1.8160001 -4.049,4.0480001 0,1.869 1.28,3.43 3.004,3.895 l -7.598,16.742 -16.6390003,-13.657 c 0.812,-0.741 1.331,-1.797 1.331,-2.979 0,-2.233 -1.8169999,-4.049 -4.04899998,-4.049 -2.23200002,0 -4.04900002,1.816 -4.04900002,4.048 0,2.232 1.816,4.048 4.04900002,4.048 0.36200005,0 0.70700005,-0.063 1.04100008,-0.153 0.007,0.03 0.004,0.061 0.014,0.092 l 9.5280002,29.091 H 8.9671377 c -0.509,0 -0.921,0.413 -0.921,0.921 v 4 c 0,0.509 0.412,0.921 0.921,0.921 H 46.967138 c 0.509,0 0.921,-0.413 0.921,-0.921 v -4 c 0,-0.509 -0.487887,-0.653617 -0.921,-0.921 h -1.582 l 9.528,-29.091 c 0.01,-0.03 0.007,-0.061 0.014,-0.092 0.334,0.09 0.679,0.153 1.041,0.153 2.232,0 4.049,-1.816 4.049,-4.048 0,-2.232 -1.819,-4.048 -4.051,-4.048 z m -57.9510003,4.048 c 0,-1.076 0.875,-1.952 1.95100002,-1.952 1.07600008,10e-4 1.95100008,0.876 1.95100008,1.952 0,1.077 -0.875,1.952 -1.95100008,1.952 -1.07600002,0 -1.95100002,-0.875 -1.95100002,-1.952 z m 48.0300003,37.079 H 9.8871377 v -2.157 H 46.045138 Z m -20.03,-41.079 c 0,-1.076 0.875,-1.952 1.951,-1.952 1.076,10e-4 1.951,0.876 1.951,1.952 0,1.076 -0.875,1.952 -1.951,1.952 -1.076,0 -1.951,-0.876 -1.951,-1.952 z m 17.298,37.005 h -30.695 l -8.6430003,-26.39 15.0870003,12.383 c 0.24,0.197 0.558,0.271 0.857,0.2 0.302,-0.07 0.553,-0.276 0.681,-0.558 l 7.366,-16.231 7.366,16.231 c 0.128,0.282 0.379,0.488 0.681,0.558 0.299,0.072 0.617,-0.003 0.857,-0.2 l 15.087,-12.383 z m 12.653,-31.053 c -1.076,0 -1.951,-0.875 -1.951,-1.952 0,-1.076 0.875,-1.952 1.951,-1.952 1.076,10e-4 1.951,0.876 1.951,1.952 0,1.077 -0.875,1.952 -1.951,1.952 z"
         style="fill:#000000;fill-opacity:1"
         sodipodi:nodetypes="sscccssscccsssscccsssssssscccsssscssscccccscsssccccccccccccsscss" />
    </g>
    <rect
       style="fill:#ffffff;fill-opacity:1;fill-rule:evenodd;stroke-width:0.37517917;stroke-linejoin:round;stroke-dasharray:0.37517916, 0.37517916"
       id="rect5137"
       width="18.307962"
       height="12.294398"
       x="17.666679"
       y="191.93059"
       ry="0.93544233"
       transform="rotate(-10.542798)" />
    <g
       transform="matrix(0.45811951,-0.08526144,0.08526144,0.45811951,44.818246,171.77775)"
       id="King">
      <path
         inkscape:connector-curvature="0"
         style="clip-rule:evenodd;fill-rule:evenodd"
         d="M 57.716,40.373 C 63.415,30.492 63.331,20.462 57.508,15.414 54.4,12.719 49.853,11.508 45.349,12.17 c -3.671,0.541 -6.911,2.297 -9.383,5.002 V 17.05 c 0,-2.373 -1.622,-4.354 -3.795,-4.904 V 7.974 h 2.971 c 0.549,0 0.994,-0.445 0.994,-0.995 0,-0.549 -0.445,-0.995 -0.994,-0.995 H 32.171 V 2.979 c 0,-0.568 -0.461,-1.029 -1.029,-1.029 -0.568,0 -1.029,0.461 -1.029,1.029 v 3.005 h -2.971 c -0.549,0 -0.994,0.445 -0.994,0.995 0,0.549 0.445,0.995 0.994,0.995 h 2.971 v 4.095 c -2.348,0.414 -4.142,2.483 -4.142,4.982 v 0.121 c -2.472,-2.705 -5.711,-4.461 -9.382,-5.002 -4.503,-0.662 -9.05,0.549 -12.16,3.244 -5.823,5.048 -5.907,15.078 -0.222,24.934 1.644,3.053 4.444,6.285 8.317,9.629 H 9.417 c -1.903,0 -3.452,1.519 -3.452,3.385 v 3.237 c 0,1.866 1.549,3.385 3.452,3.385 h 43.102 c 1.903,0 3.452,-1.519 3.452,-3.385 v -3.237 c 0,-1.866 -1.549,-3.385 -3.452,-3.385 h -3.106 c 3.872,-3.344 6.67,-6.573 8.303,-9.604 z M 30.967,13.978 c 0.013,0 0.026,0.004 0.039,0.004 0.046,0.006 0.087,0.027 0.135,0.027 0.015,0 0.028,-0.008 0.044,-0.009 1.552,0.116 2.785,1.432 2.785,3.051 V 49.976 H 27.966 V 17.051 c 0,-1.695 1.346,-3.073 3.001,-3.073 z M 5.926,39.388 C 0.713,30.35 0.629,21.313 5.718,16.902 8.359,14.613 12.409,13.546 16.3,14.119 c 3.987,0.587 7.404,2.805 9.669,6.241 V 49.976 H 15.601 C 10.965,46.252 7.71,42.698 5.926,39.388 Z m 48.039,13.973 v 3.237 c 0,0.76 -0.649,1.378 -1.446,1.378 H 9.417 c -0.797,0 -1.446,-0.618 -1.446,-1.378 v -3.237 c 0,-0.76 0.65,-1.378 1.446,-1.378 h 43.102 c 0.796,0 1.446,0.618 1.446,1.378 z M 46.334,49.976 H 35.966 V 20.36 c 2.265,-3.435 5.683,-5.653 9.67,-6.241 3.888,-0.57 7.941,0.494 10.581,2.783 5.09,4.411 5.006,13.448 -0.222,22.512 -1.77,3.285 -5.025,6.838 -9.661,10.562 z"
         id="path2-5" />
      <path
         inkscape:connector-curvature="0"
         style="clip-rule:evenodd;fill-rule:evenodd"
         d="m 11.325,18.454 c -2.33,0.807 -3.929,2.102 -4.753,3.849 -1.169,2.479 -0.285,4.922 -0.247,5.025 0.149,0.403 0.531,0.652 0.938,0.652 0.116,0 0.233,-0.021 0.349,-0.063 0.517,-0.192 0.781,-0.768 0.589,-1.286 -0.007,-0.018 -0.62,-1.777 0.181,-3.475 0.586,-1.242 1.797,-2.188 3.599,-2.813 3.525,-1.22 6.232,0.99 6.342,1.082 0.422,0.359 1.054,0.304 1.409,-0.116 0.357,-0.421 0.306,-1.052 -0.116,-1.409 -0.15,-0.126 -3.675,-3.046 -8.291,-1.446 z"
         id="path4-3" />
      <circle
         style="clip-rule:evenodd;fill-rule:evenodd"
         cx="31.141001"
         cy="54.979"
         r="1"
         id="circle6" />
      <circle
         style="clip-rule:evenodd;fill-rule:evenodd"
         cx="31.141001"
         cy="40.821999"
         r="1"
         id="circle8" />
      <circle
         style="clip-rule:evenodd;fill-rule:evenodd"
         cx="31.141001"
         cy="32.735001"
         r="1"
         id="circle10" />
      <circle
         style="clip-rule:evenodd;fill-rule:evenodd"
         cx="31.141001"
         cy="24.648001"
         r="1"
         id="circle12" />
      <circle
         style="clip-rule:evenodd;fill-rule:evenodd"
         cx="17.833"
         cy="54.979"
         r="1"
         id="circle14" />
      <circle
         style="clip-rule:evenodd;fill-rule:evenodd"
         cx="44.792999"
         cy="54.979"
         r="1"
         id="circle16" />
    </g>
    <text
       xml:space="preserve"
       style="font-style:normal;font-variant:normal;font-weight:normal;font-stretch:normal;font-size:3.17499995px;line-height:6.61458302px;font-family:'TeX Gyre Termes';-inkscape-font-specification:'TeX Gyre Termes';letter-spacing:0px;word-spacing:0px;fill:#000000;fill-opacity:1;stroke:none;stroke-width:0.26458332px;stroke-linecap:butt;stroke-linejoin:miter;stroke-opacity:1"
       x="88.824402"
       y="198.34822"
       id="text5143"><tspan
         sodipodi:role="line"
         id="tspan5141"
         x="88.824402"
         y="198.34822"
         style="font-style:normal;font-variant:normal;font-weight:bold;font-stretch:normal;font-size:50.79999924px;font-family:'Neue Haas Grotesk Text Pro';-inkscape-font-specification:'Neue Haas Grotesk Text Pro Bold';stroke-width:0.26458332px">P<tspan
   style="fill:#ffffff;fill-opacity:1"
   id="tspan5161">I</tspan>nE</tspan></text>
    <path
       style="fill:none;fill-rule:evenodd;stroke:#000000;stroke-width:1.06500006;stroke-linecap:butt;stroke-linejoin:miter;stroke-miterlimit:4;stroke-dasharray:3.195, 3.195;stroke-dashoffset:0;stroke-opacity:1;marker-end:url(#Arrow1Lend)"
       d="m 67.476413,211.59704 c 17.639789,3.4745 50.495007,13.3899 67.650077,-9.99823 12.74602,-17.3771 -21.72764,-17.57431 -8.17235,-0.0917 18.35814,23.67698 67.87648,14.3983 98.54913,-6.59607"
       id="path5145"
       inkscape:connector-curvature="0"
       sodipodi:nodetypes="cssc" />
    <rect
       x="126.88101"
       y="191.38141"
       style="fill:#965353;stroke-width:0.08164916"
       width="8.7078829"
       height="6.938056"
       id="rect2" />
    <polygon
       transform="matrix(0.08164916,0,0,0.08164916,110.33866,156.52767)"
       style="fill:#8ac054"
       points="63.985,447.863 255.927,106.632 447.861,447.863 "
       id="polygon4" />
    <polygon
       transform="matrix(0.08164916,0,0,0.08164916,110.33866,156.52767)"
       style="fill:#9ed36a"
       points="117.297,277.26 255.927,0 394.532,277.26 "
       id="polygon6" />
    <polygon
       transform="matrix(0.08164916,0,0,0.08164916,110.33866,156.52767)"
       style="opacity:0.1;enable-background:new"
       points="351.89,277.26 389.816,344.676 152.833,289.912 159.956,277.26 "
       id="polygon8" />
    <rect
       x="126.88101"
       y="193.09523"
       style="opacity:0.2;fill:#ffffff;stroke-width:0.08164916;enable-background:new"
       width="1.7421479"
       height="5.2239127"
       id="rect10" />
  </g>
</svg>
